<svg width="213" height="38" viewBox="0 0 213 38" fill="none" xmlns="http://www.w3.org/2000/svg">
    <mask id="mask0_96_564" style="mask-type:luminance" maskUnits="userSpaceOnUse" x="0" y="0" width="213" height="38">
        <path d="M212.191 0.764221H0.808937V37.1384H212.191V0.764221Z" fill="white" />
    </mask>
    <g mask="url(#mask0_96_564)">
        <path d="M201.526 3.73178H105.443C101.653 3.73178 98.58 6.80448 98.58 10.5948V26.3799C98.58 30.1702 101.653 33.2429 105.443 33.2429H201.526C205.316 33.2429 208.389 30.1702 208.389 26.3799V10.5948C208.389 6.80448 205.316 3.73178 201.526 3.73178Z" fill="#1B5C99" />
        <path d="M134.711 27.7525V20.2718H128.569V27.7525H125.755V10.7664H128.569V17.9726H134.711V10.7664H137.525V27.7525H134.711ZM140.451 28.2672C140.291 27.9012 140.131 27.5466 139.97 27.2034C139.811 26.8374 139.651 26.46 139.49 26.071C140.085 25.7737 140.577 25.4762 140.966 25.1788C141.355 24.8815 141.664 24.4811 141.892 23.9778C142.121 23.4516 142.281 22.7653 142.373 21.9189C142.464 21.0496 142.51 19.8943 142.51 18.4531V10.7664H152.942V27.7525H150.128V13.2028H145.118V19.86C145.118 21.2784 145.015 22.4679 144.809 23.4288C144.626 24.3896 144.34 25.1903 143.951 25.8308C143.585 26.4714 143.105 26.9861 142.51 27.375C141.915 27.741 141.229 28.0385 140.451 28.2672ZM164.857 26.4485C164.468 26.9518 163.919 27.3292 163.209 27.5809C162.523 27.8326 161.734 27.9584 160.842 27.9584C160.018 27.9584 159.297 27.8326 158.68 27.5809C158.062 27.3064 157.547 26.9404 157.136 26.4828C156.747 26.0253 156.449 25.4991 156.243 24.9043C156.061 24.2866 155.969 23.6461 155.969 22.9827C155.969 21.4728 156.438 20.226 157.376 19.2423C158.314 18.2357 159.812 17.7324 161.871 17.7324H164.994V15.6392C164.994 14.8614 164.731 14.2551 164.205 13.8205C163.702 13.3859 162.947 13.1685 161.94 13.1685C161.277 13.1685 160.647 13.2943 160.052 13.546C159.481 13.7747 159.069 14.1865 158.817 14.7813C158.451 14.5754 158.085 14.3695 157.719 14.1636C157.376 13.9349 157.022 13.7061 156.655 13.4773C157.113 12.5394 157.811 11.8187 158.748 11.3155C159.709 10.8122 160.773 10.5605 161.94 10.5605C162.741 10.5605 163.496 10.652 164.205 10.8351C164.914 10.9952 165.532 11.2697 166.058 11.6586C166.607 12.0476 167.03 12.5737 167.327 13.2371C167.648 13.8777 167.808 14.6898 167.808 15.6735V27.7525H164.994V26.5171L164.857 26.4485ZM164.994 20.1002H161.665C160.773 20.1002 160.041 20.3175 159.469 20.7522C158.897 21.164 158.611 21.8503 158.611 22.8111C158.611 23.566 158.863 24.1837 159.366 24.6641C159.87 25.1217 160.636 25.3504 161.665 25.3504C162.626 25.3504 163.415 25.1331 164.033 24.6984C164.674 24.2638 164.994 23.5089 164.994 22.4336V20.1002ZM175.555 3.76611C175.579 3.99488 175.647 4.23509 175.761 4.48673C175.876 4.73837 176.036 4.97858 176.242 5.20735C176.448 5.41325 176.688 5.58482 176.962 5.72208C177.26 5.85934 177.58 5.92798 177.923 5.92798C178.312 5.92798 178.655 5.85934 178.953 5.72208C179.25 5.58482 179.502 5.41325 179.708 5.20735C179.913 4.97858 180.062 4.73837 180.154 4.48673C180.268 4.23509 180.325 3.99488 180.325 3.76611H182.624C182.579 4.22365 182.464 4.70407 182.281 5.20735C182.121 5.71064 181.858 6.17962 181.492 6.61428C181.149 7.02606 180.68 7.38068 180.085 7.67805C179.513 7.95258 178.793 8.08984 177.923 8.08984C177.031 8.08984 176.288 7.95258 175.693 7.67805C175.098 7.38068 174.618 7.02606 174.251 6.61428C173.886 6.17962 173.611 5.71064 173.428 5.20735C173.268 4.70407 173.188 4.22365 173.188 3.76611H175.555ZM181.32 15.948L178.678 20.2718L174.046 27.7525H171.403V10.8007H174.251V22.914H174.32L176.859 18.6933L181.663 10.8007H184.34V27.7525H181.458V15.948H181.32ZM197.142 27.7525V20.2718H191V27.7525H188.186V10.7664H191V17.9726H197.142V10.7664H199.956V27.7525H197.142Z" fill="white" />
        <path d="M114.022 27.0662C118.381 27.0662 121.914 23.5326 121.914 19.1737C121.914 14.8148 118.381 11.2812 114.022 11.2812C109.663 11.2812 106.129 14.8148 106.129 19.1737C106.129 23.5326 109.663 27.0662 114.022 27.0662Z" fill="white" stroke="white" stroke-width="1.37261" />
        <path d="M115.051 18.007V13.0758C115.051 12.9429 114.881 12.8877 114.803 12.9951L113.679 14.5411L112.306 16.3794L110.934 18.3158L109.958 19.6581C109.792 19.8849 109.954 20.2031 110.235 20.2031H112.855C112.931 20.2031 112.992 20.2646 112.992 20.3403V25.2715C112.992 25.4044 113.163 25.4597 113.241 25.3522L118.086 18.6892C118.252 18.4625 118.09 18.1443 117.809 18.1443H115.189C115.113 18.1443 115.051 18.0828 115.051 18.007Z" fill="#1B5C99" stroke="#1B5C99" stroke-width="1.71576" />
        <path d="M14.4733 18.8648C15.4113 19.3224 16.0289 19.8714 16.3263 20.5119C16.6237 21.1296 16.7724 21.8731 16.7724 22.7424C16.7724 24.3896 16.2348 25.6707 15.1596 26.5857C14.0844 27.4779 12.6203 27.924 10.7672 27.924C9.39462 27.924 8.20505 27.6838 7.19844 27.2034C6.19186 26.7002 5.47124 25.8766 5.03658 24.7327L7.30139 23.5317C7.53015 24.1722 7.95338 24.6526 8.57105 24.9729C9.18873 25.2703 9.92081 25.419 10.7672 25.419C11.6823 25.419 12.4372 25.2017 13.032 24.767C13.6497 24.3095 13.9586 23.6118 13.9586 22.6738C13.9586 21.8731 13.7183 21.244 13.2379 20.7865C12.7575 20.3289 12.117 20.1002 11.3163 20.1002H9.25736V17.7667H11.3506C12.197 17.7667 12.8147 17.5608 13.2036 17.149C13.5925 16.7373 13.787 16.1654 13.787 15.4333C13.787 14.747 13.5468 14.1979 13.0664 13.7862C12.6088 13.3744 11.9454 13.1685 11.0761 13.1685C10.2754 13.1685 9.5662 13.3172 8.94852 13.6146C8.3537 13.8891 7.91906 14.3581 7.64454 15.0215L5.48268 13.7518C5.89446 12.7224 6.59221 11.9446 7.57591 11.4184C8.58251 10.8694 9.71492 10.5948 10.9731 10.5948C12.9176 10.5948 14.336 11.0181 15.2282 11.8645C16.1204 12.7109 16.5665 13.8319 16.5665 15.2274C16.5665 15.9137 16.4064 16.6115 16.0861 17.3206C15.7887 18.0298 15.2511 18.5445 14.4733 18.8648ZM28.3517 26.4485C27.9628 26.9518 27.4137 27.3292 26.7045 27.5809C26.0182 27.8326 25.229 27.9584 24.3368 27.9584C23.5132 27.9584 22.7926 27.8326 22.1749 27.5809C21.5573 27.3064 21.0425 26.9404 20.6307 26.4828C20.2418 26.0252 19.9444 25.4991 19.7386 24.9043C19.5555 24.2866 19.464 23.6461 19.464 22.9826C19.464 21.4728 19.933 20.226 20.871 19.2423C21.8089 18.2357 23.3073 17.7324 25.3663 17.7324H28.4889V15.6392C28.4889 14.8614 28.2258 14.2551 27.6997 13.8205C27.1964 13.3858 26.4414 13.1685 25.4349 13.1685C24.7714 13.1685 24.1423 13.2943 23.5475 13.5459C22.9756 13.7747 22.5638 14.1865 22.3122 14.7813C21.9461 14.5754 21.5801 14.3695 21.2141 14.1636C20.871 13.9349 20.5163 13.7061 20.1503 13.4773C20.6078 12.5393 21.3056 11.8187 22.2436 11.3155C23.2044 10.8122 24.2682 10.5605 25.4349 10.5605C26.2355 10.5605 26.9905 10.652 27.6997 10.835C28.4089 10.9952 29.0265 11.2697 29.5527 11.6586C30.1018 12.0475 30.5249 12.5737 30.8224 13.2371C31.1426 13.8776 31.3028 14.6898 31.3028 15.6735V27.7525H28.4889V26.5171L28.3517 26.4485ZM28.4889 20.1002H25.1604C24.2682 20.1002 23.5361 20.3175 22.9642 20.7522C22.3922 21.1639 22.1063 21.8502 22.1063 22.8111C22.1063 23.566 22.3579 24.1837 22.8612 24.6641C23.3645 25.1217 24.1309 25.3504 25.1604 25.3504C26.1212 25.3504 26.9104 25.133 27.5281 24.6984C28.1686 24.2638 28.4889 23.5088 28.4889 22.4336V20.1002ZM37.1975 12.3792C37.7008 11.7387 38.2727 11.2811 38.9132 11.0066C39.5538 10.7092 40.2745 10.5605 41.0751 10.5605C42.1961 10.5605 43.0883 10.8007 43.7517 11.2811C44.4151 11.7387 44.9299 12.3678 45.2959 13.1685C45.662 13.9463 45.9022 14.8614 46.0165 15.9137C46.1309 16.966 46.1881 18.0641 46.1881 19.208C46.1881 20.2832 46.1194 21.347 45.9822 22.3993C45.8679 23.4287 45.6162 24.3553 45.2273 25.1788C44.8384 26.0024 44.2893 26.6658 43.5801 27.1691C42.871 27.6724 41.9444 27.924 40.8006 27.924C39.3823 27.924 38.1812 27.3635 37.1975 26.2426H37.1288V34.6155H34.3493V10.7664H37.1288V12.3449C37.1518 12.3449 37.1632 12.3564 37.1632 12.3792C37.1632 12.3792 37.1746 12.3792 37.1975 12.3792ZM40.1829 25.1788C40.8921 25.1788 41.4526 25.0187 41.8644 24.6984C42.2761 24.3781 42.5964 23.9549 42.8252 23.4287C43.054 22.8797 43.2026 22.2506 43.2713 21.5414C43.3399 20.8322 43.3742 20.0773 43.3742 19.2766C43.3742 18.453 43.3399 17.6752 43.2713 16.9432C43.2026 16.2111 43.054 15.5705 42.8252 15.0215C42.6193 14.4725 42.3105 14.0378 41.8987 13.7175C41.4869 13.3744 40.9264 13.2028 40.2172 13.2028C39.3937 13.2028 38.7646 13.4201 38.3299 13.8548C37.8952 14.2666 37.5864 14.7928 37.4034 15.4333C37.2204 16.0738 37.1175 16.783 37.0945 17.5608C37.0945 18.3158 37.0945 19.0249 37.0945 19.6884C37.0945 20.3061 37.1175 20.9352 37.1632 21.5757C37.2318 22.2162 37.3691 22.8111 37.5749 23.3601C37.7808 23.8863 38.0897 24.3209 38.5015 24.6641C38.9132 25.0072 39.4737 25.1788 40.1829 25.1788ZM49.0926 15.948C49.0926 14.4381 49.5501 13.2028 50.4652 12.242C51.3803 11.2583 52.6842 10.7664 54.3772 10.7664H60.8284V27.7525H58.0489V20.6835H55.2693C54.583 20.7064 53.9997 20.8894 53.5193 21.2326C53.0617 21.5757 52.7071 22.262 52.4555 23.2915L51.3917 27.7525H48.5435L49.7789 22.8111C49.939 22.1934 50.1678 21.6215 50.4652 21.0953C50.7854 20.5691 51.2201 20.1916 51.7692 19.9629C50.8084 19.6426 50.1221 19.1165 49.7103 18.3844C49.2985 17.6295 49.0926 16.8174 49.0926 15.948ZM51.8721 15.948C51.8721 16.7487 52.1237 17.3549 52.6271 17.7667C53.1303 18.1785 53.8395 18.3844 54.7546 18.3844H58.0489V13.2371H54.8232C53.9081 13.2371 53.1875 13.4773 52.6614 13.9577C52.1352 14.4153 51.8721 15.0787 51.8721 15.948ZM65.6888 32.1791H63.0466V25.6249L64.3849 25.3161C64.7509 25.0416 65.0368 24.7442 65.2427 24.4239C65.4715 24.0807 65.6431 23.6461 65.7575 23.1199C65.8947 22.5937 65.9977 21.9303 66.0663 21.1296C66.1349 20.3061 66.2264 19.2766 66.3408 18.0412L66.6497 10.7664H77.1845V25.3161H78.6943V32.1791H76.0521V27.7525H65.6888V32.1791ZM74.4049 13.2028H69.189L68.9488 18.1099C68.8802 18.9792 68.823 19.7799 68.7772 20.5119C68.7314 21.2211 68.6628 21.8731 68.5713 22.4679C68.5027 23.0398 68.3997 23.566 68.2625 24.0464C68.1481 24.504 67.9765 24.9272 67.7478 25.3161H74.4049V13.2028ZM91.3622 15.948L88.7199 20.2717L84.0873 27.7525H81.445V10.8007H84.2932V22.914H84.3618L86.9012 18.6932L91.7053 10.8007H94.3819V27.7525H91.4994V15.948H91.3622Z" fill="#1B5C99" />
    </g>
</svg>
