<svg width="21" height="21" viewBox="0 0 21 21" fill="none" xmlns="http://www.w3.org/2000/svg">
<path d="M3.08535 9.65388C2.58197 9.45812 2.33028 9.36024 2.2568 9.2192C2.1931 9.09694 2.19301 8.9513 2.25657 8.82896C2.32988 8.68784 2.58146 8.58966 3.08461 8.39331L17.3637 2.82099C17.8179 2.64374 18.045 2.55511 18.1901 2.60359C18.3161 2.64569 18.415 2.74459 18.4571 2.87062C18.5056 3.01573 18.417 3.24283 18.2397 3.69704L12.6674 17.9761C12.4711 18.4793 12.3729 18.7308 12.2318 18.8041C12.1094 18.8677 11.9638 18.8676 11.8415 18.8039C11.7005 18.7304 11.6026 18.4787 11.4068 17.9754L9.1847 12.2613C9.14496 12.1591 9.12509 12.108 9.09441 12.065C9.06721 12.0269 9.03386 11.9935 8.99573 11.9663C8.95271 11.9356 8.90162 11.9158 8.79944 11.876L3.08535 9.65388Z" stroke="white" stroke-width="1.69106" stroke-linecap="round" stroke-linejoin="round"/>
</svg>
