<svg width="21" height="22" viewBox="0 0 21 22" fill="none" xmlns="http://www.w3.org/2000/svg">
<g clip-path="url(#clip0_92_732)">
<path d="M7.65448 15.6667H3.00407M5.54066 11.0163H1.73578M7.65448 6.36587H3.42684M14.4187 3.40652L8.84123 11.215C8.59437 11.5606 8.47094 11.7334 8.47628 11.8775C8.48093 12.0029 8.54108 12.1198 8.64045 12.1965C8.75458 12.2846 8.96694 12.2846 9.39166 12.2846H13.5732L12.7276 18.626L18.3051 10.8176C18.552 10.472 18.6754 10.2992 18.6701 10.1551C18.6654 10.0296 18.6053 9.91277 18.5059 9.83608C18.3918 9.74799 18.1794 9.74799 17.7547 9.74799H13.5732L14.4187 3.40652Z" stroke="white" stroke-width="1.69106" stroke-linecap="round" stroke-linejoin="round"/>
</g>
<defs>
<clipPath id="clip0_92_732">
<rect width="20.2927" height="20.2927" fill="white" transform="translate(0.0447083 0.869938)"/>
</clipPath>
</defs>
</svg>
